<svg width="68" height="55" viewBox="0 0 68 55" fill="none" xmlns="http://www.w3.org/2000/svg">
<path d="M51.4429 0.0252395C51.4429 0.0466418 51.5454 0.164355 51.6641 0.276717C52.0903 0.683361 52.9914 1.73207 54.2594 3.29979C54.9608 4.16658 55.8187 5.18854 56.1748 5.57379C56.8384 6.29076 57.9229 7.23782 58.5704 7.66051C59.0776 7.99225 59.1046 7.9976 59.1046 7.81568C59.1046 7.60165 58.7539 6.1891 58.5866 5.7343C57.7988 3.56732 56.2989 1.88189 54.2324 0.854579C53.5687 0.528194 52.7594 0.244613 52.1173 0.12155C51.8799 0.0733948 51.6317 0.0252395 51.567 0.0091877C51.4968 -0.00686407 51.4429 -0.001513 51.4429 0.0252395Z" fill="#007FFF"/>
<path d="M14.8303 0.1807C13.4175 0.808913 12.1142 1.57489 11.1887 2.31332C10.7013 2.70457 9.89086 3.54219 9.51848 4.04365C9.21182 4.46246 8.66421 5.48193 8.42873 6.08259C8.20421 6.6612 7.8866 8.19316 7.94136 8.44665C7.95231 8.5238 8.03993 8.48522 8.37945 8.24826C10.3235 6.89816 12.1525 4.88678 14.102 1.93859C14.8577 0.797892 15.3232 0.0649786 15.3232 0.0264034C15.3232 -0.0287027 15.2465 -0.00666046 14.8303 0.1807Z" fill="#007FFF"/>
<path d="M31.5075 1.12363C27.1526 1.48231 23.0597 3.04203 19.6926 5.61801C16.8112 7.82444 14.4809 10.7156 12.9911 13.9383C11.8996 16.2969 11.2775 18.5957 11.0101 21.275C10.9119 22.2369 10.9283 24.5303 11.0374 25.5302C11.6977 31.6061 14.6173 36.9048 19.3924 40.6981C22.0938 42.8447 25.3026 44.3392 28.7516 45.0512C29.592 45.2251 31.4584 45.4696 31.513 45.4153C31.5348 45.399 31.442 45.1979 31.3111 44.9751C31.0709 44.5675 31.0709 44.5675 30.7981 44.5349C27.7584 44.1599 25.0189 43.2578 22.4976 41.8122C21.297 41.1274 19.7417 39.9862 18.7649 39.0786L18.3556 38.7036L19.2997 37.7526L20.2492 36.8069L20.1292 36.4048C20.0637 36.182 19.9982 35.9809 19.9818 35.9537C19.9654 35.932 19.4579 36.4048 18.8467 37.008L17.7443 38.1004L17.4497 37.7852C16.4564 36.7146 15.4905 35.4266 14.7592 34.1929C12.9911 31.2039 11.9706 27.8562 11.8014 24.4651L11.7632 23.7477H13.7824H15.8016L15.8343 24.4651C15.9544 26.965 16.8112 29.7638 18.1536 32.0626C18.5193 32.693 19.3324 33.8723 19.3542 33.8071C19.3651 33.7799 19.2123 33.2093 19.0159 32.5354C18.7485 31.6006 18.5848 31.1441 18.3392 30.6387C17.8753 29.6877 17.8262 29.5627 17.5424 28.7529C17.1004 27.4812 16.8712 26.4595 16.6911 24.9161C16.5983 24.1227 16.5328 23.8184 16.2327 22.7967C16.0362 22.1391 15.8725 21.6228 15.8671 21.6554C15.8616 21.6826 15.8452 21.976 15.8234 22.3075L15.7907 22.9053L13.7769 22.9216L11.7632 22.9325L11.796 22.1336C11.9488 18.6338 13.0948 15.0198 15.0157 11.9493C15.6488 10.933 16.5656 9.73197 17.3132 8.93853L17.7171 8.50376L19.1414 9.91132L20.5603 11.3243L20.3311 11.5906C19.2724 12.8188 18.743 13.5362 18.1809 14.5035C17.8098 15.1394 17.2914 16.1665 17.2914 16.2643C17.2914 16.3024 17.4224 16.4654 17.5861 16.623L17.8808 16.9165L18.23 16.1882C18.6393 15.335 19.005 14.7046 19.5671 13.884C19.9491 13.3297 20.8823 12.1775 21.0842 12.0091C21.1606 11.9438 21.3352 12.096 22.5085 13.2644L23.8401 14.5905L23.6273 14.8079C22.5685 15.9111 21.488 17.8077 20.975 19.4707L20.8222 19.9544L21.1442 20.275C21.3188 20.4489 21.4771 20.5957 21.4935 20.5957C21.5098 20.5957 21.5808 20.3837 21.6517 20.1174C22.0829 18.536 22.9942 16.8132 24.0584 15.5741L24.4131 15.1611L25.6519 16.3947C26.727 17.4654 26.8852 17.6447 26.8252 17.7208C26.7925 17.7697 26.6233 17.9925 26.4486 18.2099C25.57 19.3566 24.9643 20.8456 24.806 22.2804L24.7351 22.9053L24.2494 22.9216L23.7637 22.938L24.1675 23.3401C24.3913 23.5629 24.615 23.7477 24.6696 23.7477C24.7296 23.7477 24.7678 23.7857 24.7678 23.851C24.7678 23.9488 25.6846 24.9759 25.7283 24.9324C25.7392 24.9216 25.7228 24.8183 25.6955 24.6987C25.6683 24.5792 25.6301 24.3183 25.6137 24.1118L25.5755 23.7477H25.9575H26.3395L26.4268 23.3945C26.4759 23.2042 26.5141 23.0195 26.5141 22.9869C26.5141 22.9543 26.334 22.9325 26.0448 22.9325H25.57L25.6082 22.5467C25.7392 21.1119 26.4104 19.5033 27.3273 18.4218C27.4637 18.2588 27.4964 18.2479 27.5728 18.3077C27.622 18.3512 27.6711 18.3729 27.682 18.3621C27.6929 18.3512 27.7911 17.9708 27.9003 17.5251C28.0094 17.0741 28.1186 16.661 28.1349 16.6067C28.1677 16.4871 28.1895 16.4763 27.6929 16.8675L27.491 17.0252L26.2631 15.8078C25.5919 15.1394 25.0407 14.5742 25.0407 14.5579C25.0407 14.4872 26.0721 13.672 26.6178 13.3079C27.2454 12.8895 28.2332 12.3786 28.8607 12.1395C29.0845 12.058 29.2864 11.9656 29.3028 11.9438C29.3519 11.8732 29.532 11.0797 29.5047 11.0526C29.461 11.0145 28.3314 11.4493 27.7256 11.7373C26.656 12.2482 25.51 13.0036 24.7514 13.6938L24.4349 13.9818L23.0979 12.6558L21.7609 11.3297L22.1047 11.0091C24.1566 9.10157 27.0489 7.6451 29.974 7.0473L30.5743 6.92774L30.6726 6.52558C30.7326 6.3082 30.7653 6.11256 30.749 6.10169C30.7053 6.05821 29.9795 6.18864 29.15 6.38972C26.3122 7.07447 23.8128 8.38964 21.5317 10.4004L21.1606 10.7265L19.7472 9.31894L18.3283 7.9114L18.5084 7.72662C18.7867 7.43316 19.7308 6.63427 20.3256 6.18864C23.5836 3.73222 27.5074 2.26489 31.6439 1.94425C31.8131 1.92795 31.8349 1.9062 31.895 1.71056C31.9277 1.591 31.9714 1.40079 31.9932 1.28667C32.0369 1.06385 32.0696 1.07472 31.5075 1.12363Z" fill="#007FFF"/>
<path d="M34.2415 1.25214C34.2631 1.33904 34.3172 1.52915 34.3658 1.68123C34.4523 1.95281 34.4523 1.95281 34.6955 1.9691C34.8306 1.97453 35.2791 2.01799 35.6952 2.06687C39.4944 2.4851 43.3908 4.11999 46.3956 6.54789C47.1522 7.16165 47.8493 7.78628 47.8709 7.86775C47.8763 7.90034 47.2657 8.54669 46.5091 9.30711L45.1364 10.6867L44.3906 10.0458C42.3046 8.27512 39.7808 6.99327 37.1814 6.38494C36.2843 6.17854 35.5061 6.05362 35.5061 6.11879C35.5061 6.24915 35.6952 6.90094 35.7385 6.93353C35.7709 6.94982 35.9276 6.98241 36.0897 7.00414C36.5869 7.06388 37.8083 7.38977 38.5865 7.66135C39.77 8.07415 40.9644 8.64446 41.9641 9.27452C42.5748 9.66016 43.7313 10.5401 44.1691 10.9529L44.5365 11.295L43.2179 12.6203L41.8939 13.9402L41.4669 13.5709C40.5482 12.7724 39.462 12.0881 38.2785 11.5666C37.7326 11.3276 36.7923 10.9855 36.7599 11.018C36.7545 11.0289 36.7977 11.2407 36.8571 11.4906L36.9706 11.9468L37.403 12.0989C38.5919 12.5226 40.0186 13.3862 41.1265 14.353L41.3156 14.5214L40.0781 15.7706L38.8405 17.0199L38.5919 16.7972C38.2947 16.5365 38.1542 16.455 38.1542 16.5365C38.1542 16.618 38.5919 18.3506 38.6189 18.3778C38.6297 18.3886 38.6892 18.356 38.7486 18.3017C38.8567 18.204 38.8621 18.204 39.0188 18.3886C39.543 19.0024 40.1267 20.0398 40.3969 20.8491C40.5536 21.3217 40.7212 22.0929 40.7752 22.6035L40.8076 22.9457H40.2888C40.0078 22.9457 39.7754 22.962 39.7754 22.9837C39.7808 23.0109 39.8241 23.1847 39.8727 23.3802L39.9646 23.7333L40.3861 23.7496C40.6131 23.7604 40.8022 23.7821 40.8022 23.8039C40.8022 23.8256 40.7644 24.0863 40.7212 24.3796C40.6779 24.6784 40.6509 24.9282 40.6617 24.9391C40.6725 24.9499 40.8887 24.7435 41.1481 24.4828C41.4453 24.1732 41.6129 23.9614 41.6129 23.8799C41.6129 23.793 41.6453 23.7604 41.7372 23.7604C41.8182 23.7604 41.9966 23.6246 42.2614 23.3531L42.6613 22.9457H42.1479H41.6291L41.5696 22.3591C41.3913 20.7296 40.7266 19.1599 39.6781 17.9052L39.435 17.6119L40.6779 16.3627L41.9209 15.1134L42.3262 15.6023C43.3908 16.8787 44.2771 18.557 44.6879 20.0941C44.7527 20.3331 44.8176 20.5667 44.8338 20.6101C44.8554 20.6699 44.9581 20.5884 45.1796 20.3386C45.358 20.143 45.5039 19.9692 45.5039 19.9475C45.5093 19.8226 45.1256 18.7471 44.8554 18.1334C44.369 17.0036 43.5476 15.7055 42.8126 14.9016C42.6559 14.7332 42.5316 14.5703 42.5316 14.5485C42.5316 14.5214 43.1152 13.913 43.8286 13.1961L45.1202 11.8979L45.2661 12.0283C45.4877 12.2401 46.3145 13.2558 46.6766 13.7664C47.163 14.4562 47.6386 15.2709 48.0709 16.1671L48.4546 16.971L48.768 16.6505L49.0815 16.3355L48.7248 15.6185C48.0169 14.2009 47.2873 13.0929 46.2929 11.9414L45.7309 11.2842L47.1198 9.88828L48.514 8.48695L48.8113 8.8074C50.0488 10.1164 51.4323 12.1261 52.2375 13.7773C52.324 13.9511 52.4321 14.1086 52.4861 14.1249C52.5564 14.1466 52.5726 14.1901 52.5564 14.2715C52.5348 14.3476 52.6267 14.63 52.805 15.0428C53.7129 17.1774 54.3074 19.8063 54.4046 22.1147L54.4371 22.9457H52.4915H50.5406L50.5082 22.8208C50.492 22.7556 50.4758 22.4949 50.4758 22.2396C50.4758 21.9897 50.4542 21.8051 50.4325 21.8322C50.3353 21.9463 49.6651 24.4665 49.6111 24.9282C49.3571 27.1388 48.8221 28.991 47.9466 30.7508C47.8601 30.9246 47.6386 31.5927 47.4602 32.2336C47.2765 32.8745 47.1035 33.4829 47.0765 33.5806C47.0009 33.8414 47.0711 33.7653 47.4926 33.1461C49.2598 30.5173 50.2974 27.4919 50.465 24.4937L50.5028 23.7876L52.4699 23.7713L54.4371 23.7604L54.4046 24.5317C54.2263 28.5891 52.6807 32.8202 50.1623 36.166C49.5517 36.9808 48.5735 38.0997 48.4762 38.0997C48.4546 38.0997 47.9844 37.638 47.4224 37.0677L46.401 36.0411L46.2605 36.4322C46.1308 36.7961 45.4444 37.9041 44.8662 38.67L44.6662 38.9361L45.0391 38.7297C45.2445 38.6157 45.4823 38.4799 45.5633 38.431C45.6876 38.3604 45.7363 38.2572 45.8822 37.7195C45.9795 37.3773 46.0767 37.0623 46.093 37.0297C46.1146 36.9862 46.4496 37.2849 47.0117 37.8498L47.8926 38.7352L47.4116 39.1751C44.8824 41.5052 41.5102 43.2868 38.0731 44.1015C37.4246 44.2536 36.1168 44.4817 35.5547 44.536L35.2035 44.5741L34.9549 44.9869L34.7063 45.4051L34.8846 45.4214C35.1386 45.4431 36.6896 45.2421 37.5057 45.0738C44.7581 43.6127 50.8108 38.5994 53.6264 31.7176C56.8095 23.9342 55.3017 14.9233 49.7678 8.63359C45.866 4.19603 40.5807 1.56717 34.7063 1.13265L34.2037 1.09462L34.2415 1.25214Z" fill="#007FFF"/>
<path d="M31.1784 8.41317C30.175 12.4512 28.4122 19.5136 27.2623 24.1128C26.1124 28.7066 25.1741 32.5049 25.1741 32.5485C25.1741 32.5975 25.8033 33.7037 26.568 35.0116C27.3328 36.3194 28.1139 37.6436 28.2929 37.9597C28.8244 38.8697 31.5147 43.4581 31.71 43.7905C31.8076 43.954 32.1385 44.5153 32.4422 45.0275C32.746 45.5452 33.0117 45.9703 33.028 45.9703C33.0497 45.9703 33.1582 45.8177 33.2667 45.627C33.3751 45.4417 35.1759 42.4227 37.2642 38.9188C39.3524 35.4148 41.0555 32.5376 41.0447 32.5158C41.023 32.4831 40.7897 31.5676 39.9002 28.0691C39.6995 27.2898 39.4337 26.2326 39.3036 25.7258C39.1734 25.2136 38.9076 24.1619 38.7069 23.3826C38.5117 22.6033 38.2296 21.4971 38.0832 20.9304C37.9367 20.3582 37.671 19.3065 37.4865 18.5872C37.0038 16.6799 36.4885 14.6582 36.1577 13.3558C35.9949 12.7236 35.7183 11.6229 35.5339 10.9035C35.3495 10.1842 35.0729 9.078 34.9101 8.45132C34.7474 7.81919 34.422 6.52224 34.1779 5.56315C33.2016 1.72679 33.0443 1.11101 33.028 1.09466C33.0172 1.08376 32.1873 4.38063 31.1784 8.41317Z" fill="#007FFF"/>
<path d="M57.9749 3.01549C57.9749 3.03183 58.1221 3.27707 58.3076 3.56589C58.9893 4.65036 59.5402 5.9855 59.9274 7.50048C60.282 8.86833 60.4183 9.50592 60.511 10.1708C60.5601 10.5141 60.6201 10.852 60.6474 10.9174C60.7292 11.1135 60.6201 11.0645 60.4729 10.8356C60.2874 10.5577 59.5075 9.7784 59.0111 9.37513C58.7875 9.1953 58.1712 8.73209 57.6476 8.35062C55.9241 7.10266 55.3078 6.5904 54.7133 5.89831C54.5878 5.75117 54.4733 5.64218 54.457 5.65308C54.4188 5.69123 54.626 6.63945 54.7569 7.05362C54.9533 7.64762 55.3842 8.47596 55.7605 8.97187C56.3986 9.81655 57.1895 10.5468 58.8203 11.7784C59.9493 12.634 60.5874 13.1626 61.0455 13.6258C61.4546 14.0345 61.9782 14.683 62.12 14.9609C62.1582 15.0372 62.2018 15.0699 62.2345 15.0372C62.3709 14.901 62.4418 11.0591 62.3382 9.69121C62.2291 8.26342 61.82 6.74299 61.291 5.75662C60.5819 4.44872 59.5129 3.51685 58.1821 3.06453C58.0676 3.02094 57.9749 2.99914 57.9749 3.01549Z" fill="#007FFF"/>
<path d="M8.26113 3.44585C7.46137 3.82789 6.59763 4.60834 6.08579 5.41063C5.44065 6.43668 4.98745 7.88843 4.74752 9.72222C4.66755 10.3389 4.65155 10.852 4.65155 12.8713C4.65155 14.1975 4.66755 15.3 4.68887 15.3218C4.7102 15.3437 4.92347 15.1472 5.15806 14.8907C5.62726 14.3776 6.41102 13.6627 7.29076 12.9423C9.35947 11.2449 10.2605 10.3881 10.9377 9.45479C11.6574 8.46694 12.1586 7.24988 12.2759 6.20199L12.3132 5.87453L11.9773 6.25657C11.2736 7.05886 10.4845 7.76836 8.80497 9.11095C7.44004 10.197 7.15746 10.4426 6.56031 11.0484C6.31505 11.2886 6.11778 11.4632 6.11778 11.425C6.11778 11.3595 6.18709 11.0866 6.62962 9.42204C7.3654 6.66044 8.0212 4.69021 8.54904 3.66416C8.63435 3.50043 8.709 3.34761 8.71966 3.32032C8.75698 3.24392 8.59703 3.28758 8.26113 3.44585Z" fill="#007FFF"/>
<path d="M62.8617 7.73886C62.8511 7.77692 62.9094 7.97807 63.0048 8.18466C63.2328 8.70114 63.36 9.26111 63.4501 10.1147C63.5773 11.3053 63.5349 12.6862 63.2964 15.5839C63.254 16.0895 63.201 16.8506 63.1798 17.2747C63.1639 17.7042 63.1267 18.0521 63.1002 18.0521C63.0737 18.0521 63.0525 18.014 63.0525 17.9651C63.0525 17.8183 62.7822 17.1714 62.5648 16.8017C62.1036 16.0188 61.4356 15.3012 60.1898 14.2465C59.1349 13.3494 58.8433 13.0504 58.5571 12.5448C58.4192 12.3002 58.2178 12.012 58.1012 11.8979C57.8997 11.6967 57.5551 11.5445 57.4756 11.626C57.4491 11.6532 57.465 11.7783 57.5074 11.9142C57.5498 12.0447 57.6611 12.398 57.7513 12.697C58.0322 13.5941 58.5995 14.8391 59.1031 15.66C59.4636 16.2526 60.227 17.3997 60.9108 18.3783C61.7696 19.6015 62.2891 20.4225 62.7344 21.2379C63.0737 21.8686 63.519 22.8635 63.5667 23.119C63.6198 23.3854 63.7152 23.2549 63.7576 22.8635C63.8212 22.2546 64.0333 21.4608 64.4574 20.1941C65.5176 17.0735 65.6607 16.4429 65.6713 14.8717C65.6766 13.6865 65.6024 13.0504 65.3268 12.0283C64.9716 10.6964 64.3672 9.35897 63.572 8.14661C63.3123 7.74974 62.9412 7.53771 62.8617 7.73886Z" fill="#007FFF"/>
<path d="M3.36056 8.89746C2.3266 10.2388 1.81225 11.7701 1.66529 13.9314C1.58131 15.1858 1.72827 17.0647 2.01169 18.3029C2.05368 18.4984 2.11141 18.7644 2.1429 18.9002C2.38433 20.0243 3.13487 22.0933 3.67547 23.1087C3.93264 23.5975 3.95889 23.6192 4.00087 23.3966C4.12159 22.8209 4.51523 21.7946 4.89312 21.0724C5.33924 20.2252 5.71189 19.6496 6.75109 18.1943C8.22592 16.1307 8.91348 14.7297 9.14441 13.3069C9.31236 12.2426 9.32286 12.1394 9.28612 12.1014C9.25988 12.0742 9.16541 12.172 9.06568 12.3132C8.97121 12.4598 8.25217 13.2309 7.47539 14.04C5.8431 15.7289 5.40223 16.2339 4.96135 16.9127C4.63594 17.4231 4.24756 18.1834 4.13734 18.5309C4.1006 18.645 4.05336 18.7482 4.03761 18.759C4.01662 18.7699 4.00612 18.2323 4.01662 17.5643C4.03237 16.3534 3.97463 15.4302 3.78569 13.8934C3.49702 11.5203 3.48127 9.56539 3.7437 8.59336C3.80143 8.38157 3.69646 8.46846 3.36056 8.89746Z" fill="#007FFF"/>
<path d="M51.0203 15.9857C50.9765 16.0508 50.3857 16.6532 49.7182 17.3261C48.3396 18.7099 47.1963 19.8713 44.1163 23.0025C41.2113 25.9546 40.8393 26.3399 40.8229 26.3888C40.8065 26.4322 41.0527 27.3927 42.0648 31.3271L42.393 32.6024L39.871 36.781C38.4815 39.0819 37.1795 41.2418 36.9716 41.5782C36.605 42.1806 36.605 42.186 36.7801 42.0992C36.8731 42.0504 37.5843 41.6542 38.3502 41.2201C40.4509 40.037 42.0538 39.1362 43.5966 38.2734L44.9806 37.4919L45.3034 36.3794C47.1525 29.9324 51.0148 16.485 51.1461 16.04C51.2063 15.8392 51.1406 15.812 51.0203 15.9857Z" fill="#007FFF"/>
<path d="M15.5969 15.8729C15.5969 15.8947 16.1906 18.0324 16.9126 20.6172C19.223 28.8952 21.4693 36.9278 21.5602 37.2659L21.6511 37.5931L23.8225 38.8474C26.4378 40.3525 27.6304 41.0396 28.5931 41.6013C28.9889 41.8303 29.3739 42.0539 29.4488 42.0921C29.5772 42.163 29.5772 42.163 29.497 42.0321C29.4488 41.9612 28.9675 41.1268 28.422 40.1834C27.4432 38.4875 26.4378 36.7424 24.86 34.0158L24.0578 32.6198L24.828 29.5169C25.2505 27.81 25.5928 26.3704 25.5821 26.3213C25.5714 26.234 25.2077 25.8469 22.6298 23.1693C22.0094 22.5258 20.528 20.9771 19.3407 19.7338C16.1852 16.4346 15.5969 15.8293 15.5969 15.8729Z" fill="#007FFF"/>
<path d="M66.4298 16.4842C66.4139 16.5228 66.3927 16.8424 66.3768 17.1951C66.292 18.9037 65.868 20.4854 64.7973 23.0316C64.0712 24.7512 63.4829 26.4211 63.4829 26.7407C63.4829 26.7959 63.4617 26.8289 63.4352 26.8124C63.4087 26.7959 63.3716 26.5864 63.3504 26.355C63.255 25.181 62.8893 23.9355 62.3063 22.745C62.089 22.3152 61.5483 21.3507 61.1031 20.6067C60.6579 19.8626 60.1703 18.9918 60.0219 18.6667C59.8682 18.3415 59.7304 18.077 59.7145 18.077C59.5767 18.0604 59.6827 20.2098 59.8788 21.3672C59.9901 22.0231 60.3505 23.5332 60.483 23.8969C60.7533 24.6354 61.384 26.8455 61.6226 27.8816C61.8664 28.9398 61.9194 29.4413 61.9194 30.7916C61.9194 31.4639 61.93 32.0151 61.9459 32.0151C61.9936 32.0151 63.4299 30.4774 63.7214 30.1192C65.5765 27.832 66.7637 25.2472 67.1665 22.6403C67.4315 20.8988 67.3361 18.8541 66.9015 17.107C66.769 16.5834 66.6789 16.4181 66.5199 16.4181C66.4775 16.4181 66.4404 16.4511 66.4298 16.4842Z" fill="#007FFF"/>
<path d="M0.383615 17.8486C0.302927 18.1861 0.21686 18.5508 0.184585 18.6542C0.0877591 18.9971 -0.0144457 20.3526 0.00169191 21.0765C0.0232087 21.904 0.120034 22.9219 0.189964 23.1179C0.21686 23.1941 0.265273 23.4009 0.302927 23.5805C0.808572 26.2097 2.56219 29.2799 5.26793 32.2901L5.50999 32.5623L5.51537 31.528C5.51537 30.4339 5.55841 29.9168 5.73592 28.8607C5.89192 27.9299 5.99412 27.5488 6.75259 24.9959C7.43037 22.7205 7.60788 21.7896 7.65092 20.3689C7.68319 19.3673 7.64016 18.4365 7.55947 18.4365C7.53795 18.4365 7.46264 18.578 7.39271 18.7467C7.22058 19.1768 6.77411 20.0477 6.22543 21.0221C5.23028 22.7912 4.74615 23.8309 4.45567 24.7944C4.24588 25.5075 4.06837 26.4057 4.02533 26.9664C4.0092 27.244 3.97154 27.4726 3.94465 27.4726C3.92313 27.4726 3.90161 27.4291 3.90161 27.3747C3.90161 27.0208 3.30452 25.1646 2.72895 23.7439C2.54067 23.2648 2.19103 22.4048 1.9651 21.8332C1.37339 20.3689 0.819331 18.5834 0.668713 17.658C0.631058 17.4294 0.582646 17.2389 0.561129 17.2389C0.539612 17.2389 0.458924 17.5165 0.383615 17.8486Z" fill="#007FFF"/>
<path d="M59.6672 26.0638C59.6453 26.1181 59.5959 26.2537 59.5519 26.3567C59.4806 26.5303 59.2719 27.2572 59.1401 27.7942C59.0358 28.2281 58.8765 29.1719 58.7722 30.0181C58.6734 30.8264 58.6185 31.3634 58.4098 33.5168C58.1023 36.7334 57.7674 38.594 57.3116 39.6137C57.2347 39.7873 57.1798 39.9392 57.1908 39.95C57.2237 39.9826 61.3805 37.2433 62.0339 36.7605C65.1363 34.4769 66.6958 32.2584 67.3327 29.2208C67.481 28.5048 67.6512 26.6822 67.5634 26.6822C67.5414 26.6822 67.4041 26.8883 67.2614 27.1433C66.3608 28.7109 65.1528 30.2514 62.9729 32.6218C61.5452 34.1732 60.9412 34.8403 60.5348 35.334C60.3372 35.5726 60.1889 35.7299 60.2054 35.6811C60.6337 34.5149 60.716 33.967 60.7105 32.2421C60.7105 30.3707 60.5513 29.1936 59.9747 26.7907C59.7935 26.0313 59.7331 25.8848 59.6672 26.0638Z" fill="#007FFF"/>
<path d="M7.22595 26.4322C7.22595 26.5249 7.13013 27.2499 7.01302 28.0403C6.79477 29.5122 6.63507 30.7333 6.52861 31.6818C6.49667 31.987 6.4807 32.7121 6.49667 33.3717C6.51796 34.5437 6.59249 35.0725 6.82671 35.7484C6.86929 35.8793 6.89591 35.9992 6.88526 36.0101C6.87462 36.0264 6.77348 35.8956 6.66701 35.7212C6.22519 35.018 5.55447 34.2221 3.89896 32.4559C3.22824 31.7363 2.48832 30.9186 2.25942 30.646C1.38642 29.5885 0.577299 28.2965 0.220646 27.3753C0.135475 27.1572 0.0449812 26.9773 0.0183654 26.9773C-0.0295432 26.9773 0.0236885 28.6127 0.0928898 29.1306C0.231292 30.1827 0.556006 31.3002 0.99783 32.2487C2.11037 34.6418 4.02139 36.5443 7.41758 38.643C8.12556 39.0846 10.0792 40.2239 10.1218 40.2239C10.1377 40.2239 10.0792 40.0658 9.994 39.8696C9.79704 39.4117 9.44571 38.2724 9.30731 37.6073C9.0997 36.6315 8.97727 35.6776 8.71644 32.9737C8.47157 30.428 8.34914 29.5939 8.0191 28.2638C7.77956 27.299 7.40161 26.2687 7.27918 26.2687C7.25256 26.2687 7.22595 26.345 7.22595 26.4322Z" fill="#007FFF"/>
<path d="M56.9658 32.8146C56.0042 33.9807 54.9496 36.1039 54.0098 38.7936C52.8951 41.9673 51.9935 43.8814 50.9444 45.2675L50.622 45.6966L50.8788 45.6636C51.8733 45.5426 53.7912 45.185 54.5288 44.987C54.7419 44.9265 55.0589 44.8385 55.2392 44.789C57.4084 44.195 59.7908 42.9794 61.277 41.7088C63.0201 40.2127 64.173 38.524 64.9981 36.2689C65.162 35.8178 65.1675 35.6748 65.009 35.9114C64.8068 36.2029 64.0528 36.9399 63.4353 37.4405C62.2168 38.425 60.5339 39.4756 57.8619 40.9112C56.8238 41.4668 55.0753 42.4678 54.6764 42.7373C54.4523 42.8804 54.2611 43.0014 54.2447 43.0014C54.2283 43.0014 54.3595 42.8474 54.5343 42.6548C55.4796 41.6428 56.1681 39.9541 56.6325 37.5285C56.6926 37.1929 56.7801 36.7639 56.8238 36.5659C56.8675 36.3679 56.9385 35.9719 56.9877 35.6858C57.086 35.1138 57.3592 33.7002 57.4795 33.1832C57.5396 32.9246 57.545 32.8311 57.4904 32.7156C57.3811 32.4846 57.2226 32.5121 56.9658 32.8146Z" fill="#007FFF"/>
<path d="M9.85749 33.5274C9.97549 34.0049 10.1847 35.0468 10.469 36.5554C10.8927 38.7856 11.3433 40.3593 11.8851 41.4934C12.2015 42.1501 12.6092 42.8012 12.9096 43.1431C12.9954 43.2408 13.0705 43.3384 13.0705 43.3493C13.0705 43.3873 12.8613 43.257 12.8291 43.1974C12.7862 43.1322 11.9226 42.557 11.3004 42.188C10.7157 41.8407 10.2383 41.5857 8.59159 40.7337C5.71115 39.2415 4.6169 38.5198 3.46902 37.3476C3.12572 37.0003 2.76634 36.5988 2.66979 36.4577C2.57324 36.3112 2.48205 36.2081 2.46596 36.2244C2.42305 36.2678 2.81461 37.429 3.08281 38.0477C3.50656 39.0244 4.0215 39.8709 4.65981 40.6361C6.61766 42.9803 9.64293 44.5377 14.2077 45.5362C14.8996 45.6935 16.4498 45.9703 16.6053 45.9703C16.7287 45.9703 16.7287 45.9648 16.5463 45.7369C15.9939 45.0532 15.4038 44.0819 14.9532 43.1322C14.8031 42.8067 14.6797 42.5353 14.6797 42.519C14.6797 42.5082 14.6314 42.3942 14.5778 42.264C14.4329 41.9438 14.1326 41.1896 13.8215 40.3539C12.5502 36.9352 12.0084 35.7685 11.1234 34.5313C10.764 34.0212 9.92722 33.1096 9.8253 33.1096C9.77703 33.1096 9.78239 33.2127 9.85749 33.5274Z" fill="#007FFF"/>
<path d="M52.1414 40.0281C51.3275 40.6392 50.1694 41.649 48.8256 42.9298C46.4603 45.1778 45.6136 45.9218 45.1383 46.1504C44.9854 46.2248 44.5484 46.3736 44.1605 46.4799C43.2756 46.719 42.8003 46.8891 42.4944 47.0804C42.1831 47.2717 42.0738 47.394 42.1776 47.4312C43.7126 47.9785 45.6627 48.4037 47.7167 48.6375C48.0881 48.6801 48.9622 48.7066 50.011 48.7066C51.7863 48.7013 52.3872 48.6535 53.6163 48.4037C56.1509 47.8935 58.1612 46.735 59.2701 45.1459C59.5378 44.7633 59.9256 44.0511 59.9256 43.9448C59.9256 43.913 59.7945 43.998 59.6415 44.1255C59.068 44.5932 58.254 45.0131 57.2489 45.3585C56.6043 45.5764 55.0967 45.9484 54.6651 46.0016C54.5067 46.0175 54.1953 46.0653 53.9714 46.1025C53.1738 46.2513 51.2182 46.4267 48.7764 46.5808C48.0663 46.6234 47.4381 46.6606 47.3835 46.6606C47.3234 46.6606 47.4818 46.5755 47.7331 46.4745C48.547 46.1504 49.0987 45.773 49.7433 45.1034C50.5299 44.2797 51.3384 42.9032 52.0868 41.1069C52.2561 40.6977 52.4255 40.2885 52.4637 40.2034C52.6166 39.858 52.6767 39.6932 52.6549 39.6773C52.644 39.6667 52.4145 39.8208 52.1414 40.0281Z" fill="#007FFF"/>
<path d="M14.6372 40.2382C14.6372 40.3174 15.6084 42.1723 16.1022 43.0337C16.7936 44.2385 17.3423 44.9572 18.127 45.6917C18.6209 46.1462 18.8952 46.3365 19.5372 46.6641C19.9103 46.8596 19.9542 46.8966 19.7951 46.8755C19.5537 46.8438 17.8527 46.7169 16.2284 46.6113C13.5123 46.4316 11.8277 46.1938 10.4669 45.7922C9.78101 45.5913 9.70968 45.5649 9.08414 45.2796C8.53542 45.0259 8.04157 44.7353 7.82209 44.5344C7.29532 44.0588 8.17327 45.4381 8.89209 46.2149C9.97306 47.3828 11.6905 48.2812 13.5233 48.6405C14.6975 48.8677 15.0652 48.9153 15.998 48.9629C16.865 49.0104 19.186 48.9523 19.3013 48.8836C19.3177 48.873 19.7293 48.8149 20.2121 48.7568C21.2602 48.6299 22.3247 48.445 23.4715 48.1913C24.7061 47.9165 25.7213 47.6417 25.7213 47.5836C25.7213 47.5096 25.2658 47.2348 24.8982 47.0869C24.7061 47.0076 24.1519 46.8438 23.6691 46.7169C23.1807 46.5954 22.643 46.4421 22.4619 46.3787C21.9461 46.2043 21.5016 45.8397 19.3342 43.8158C17.7045 42.2938 17.3259 41.9609 16.6345 41.4272C15.8937 40.8617 14.6372 40.1113 14.6372 40.2382Z" fill="#007FFF"/>
<path d="M36.0312 47.376C35.727 47.4131 35.3956 47.5085 34.9339 47.6886C33.9778 48.0648 33.6736 48.1337 33.3096 48.0542C33.1467 48.0171 33.0163 47.9641 33.0163 47.9376C33.0163 47.9111 33.0652 47.8052 33.1249 47.7098L33.239 47.535L33.0163 47.625C32.8316 47.6992 32.799 47.7363 32.8262 47.8317C32.8533 47.9482 32.8479 47.9482 32.6252 47.8741C32.4948 47.837 32.1363 47.7098 31.8212 47.6039L31.2508 47.3972L30.0829 47.4025C29.0454 47.4025 28.8335 47.4184 28.1817 47.5456C27.0137 47.7681 26.0088 48.0913 24.2542 48.8118C23.6784 49.0449 22.831 49.3893 22.3692 49.5801C20.3376 50.4119 18.9089 50.7562 17.5074 50.7615C16.8175 50.7615 16.2091 50.6715 15.1281 50.4172C13.9982 50.1522 13.1345 50.0251 13.1345 50.1258C13.1345 50.2582 14.9652 51.445 15.9212 51.9271C16.8067 52.3722 17.5346 52.6371 18.3494 52.8172C19.2131 53.0026 20.6255 53.0132 21.5327 52.8384C22.9668 52.5576 23.912 52.1126 26.0088 50.735C27.9644 49.4423 28.8498 48.9973 29.92 48.7482C30.4469 48.6317 31.517 48.5469 31.6909 48.6105C31.7778 48.6423 31.7723 48.6529 31.6528 48.7165C31.2563 48.9231 28.9422 50.3006 28.3501 50.6768C27.1007 51.4768 26.1609 52.2556 25.5036 53.0291C24.8789 53.7656 24.7214 54.0464 24.9386 54.0464C25.069 54.0464 25.4112 54.3749 25.6068 54.6821C25.7155 54.857 25.8187 55 25.835 55C25.8513 55 26.4162 54.4596 27.0898 53.7974C29.6864 51.2437 30.8923 50.3165 32.837 49.3734L33.7225 48.9443L33.9506 49.0449C34.3418 49.2145 35.3956 49.8503 36.0257 50.3006C37.0578 51.0264 37.764 51.6251 39.9097 53.5695C40.6648 54.253 41.3058 54.8252 41.333 54.8358C41.3656 54.8464 41.6046 54.6504 41.8599 54.4066C42.1206 54.1576 42.3814 53.9298 42.4411 53.9033C42.5878 53.8238 42.5172 53.6967 42.0229 53.1457C41.2786 52.3192 40.3497 51.6039 38.5028 50.4436C36.7536 49.3469 35.6835 48.6211 35.5912 48.478C35.5477 48.4039 36.6613 48.4251 37.3077 48.5098C38.3724 48.6476 38.7255 48.8383 40.5399 50.2582C42.0337 51.4291 42.4574 51.6728 43.6254 52.0649C44.7987 52.4569 45.7982 52.5841 47.4387 52.547C48.4872 52.5205 48.7968 52.494 49.3617 52.3828C50.9805 52.0596 52.2408 51.4874 53.1099 50.6821C53.4467 50.3748 53.9465 49.7178 53.903 49.6489C53.8922 49.6277 53.6912 49.7072 53.4576 49.8185C52.9633 50.0516 52.0126 50.3695 51.464 50.4754C51.2521 50.5178 50.7252 50.5655 50.2906 50.5814C48.6338 50.6503 47.1943 50.3165 44.3424 49.2092C41.0396 47.927 40.453 47.7416 38.9374 47.4714C38.2584 47.3495 36.6776 47.2966 36.0312 47.376Z" fill="#007FFF"/>
</svg>
