<svg width="125" height="22" viewBox="0 0 125 22" fill="none" xmlns="http://www.w3.org/2000/svg">
<path d="M18.5 0.5H100H123.5L102.5 21.5H4.5L1 18L18.5 0.5Z" fill="#007FFF" stroke="#007FFF"/>
<path d="M29.3818 15.1529H19.8914V11.6657H27.9708H28.0208V11.6157V10.8443V10.7943H27.9708H19.8914V7.84714H29.3171H29.3671V7.79714V7V6.95H29.3171H19H18.95V7V16V16.05H19H29.3818H29.4318V16V15.2029V15.1529H29.3818ZM39.2745 11.5126L45.3937 7.04037L45.5173 6.95H45.3642H44.1344H44.1182L44.105 6.95953L38.5164 11.0138L32.9795 6.95966L32.9663 6.95H32.95H31.6814H31.5288L31.6518 7.0403L37.7582 11.5254L31.6133 15.9595L31.4878 16.05H31.6425H32.937H32.9532L32.9663 16.0406L38.5163 12.0373L44.0793 16.0406L44.0924 16.05H44.1085H45.403H45.5576L45.4323 15.9595L39.2745 11.5126ZM49.0939 16.05H49.1439V16V12.5529H56.2266C57.4638 12.5529 58.381 12.4056 58.9888 11.9681C59.6011 11.5273 59.8882 10.8008 59.8882 9.67429C59.8882 8.81602 59.6455 8.13036 59.0504 7.66144C58.458 7.1947 57.5252 6.95 56.1618 6.95H48.2525H48.2025V7V16V16.05H48.2525H49.0939ZM79.2439 16.05H79.2939V16V12.3729H85.4243L89.1896 16.0358L89.2042 16.05H89.2245H90.3636H90.4867L90.3985 15.9642L86.7067 12.3727C87.9269 12.367 88.8206 12.2143 89.4118 11.798C90.0195 11.3703 90.2971 10.6727 90.2971 9.61C90.2971 8.73222 90.0478 8.06187 89.4402 7.61387C88.8365 7.16863 87.8878 6.95 86.5061 6.95H78.4025H78.3525V7V16V16.05H78.4025H79.2439ZM98.4984 16.05H98.5484V16V7.84714H104H104.05V7.79714V7V6.95H104H92.1813H92.1313V7V7.79714V7.84714H92.1813H97.607V16V16.05H97.657H98.4984ZM55.9936 7.84714C57.0991 7.84714 57.8239 7.98258 58.2719 8.27765C58.7139 8.56883 58.895 9.02186 58.895 9.68714C58.895 10.5374 58.721 11.0191 58.2917 11.2956C58.0744 11.4357 57.7873 11.5262 57.414 11.5813C57.0409 11.6364 56.5851 11.6557 56.0324 11.6557H49.1439V7.84714H55.9936ZM70.2779 16.05C72.2907 16.05 73.4993 15.5826 74.2024 14.7711C74.9042 13.9612 75.0916 12.8202 75.0916 11.5C75.0916 10.1603 74.8944 9.01925 74.1876 8.21416C73.4796 7.40772 72.2711 6.95 70.2779 6.95H66.8086C64.8154 6.95 63.6069 7.40772 62.8989 8.21416C62.1921 9.01925 61.9949 10.1603 61.9949 11.5C61.9949 12.8202 62.1823 13.9612 62.8841 14.7711C63.5872 15.5826 64.7958 16.05 66.8086 16.05H70.2779ZM70.1484 7.79571C71.8216 7.79571 72.8164 8.09789 73.3955 8.70279C73.9748 9.30798 74.1502 10.2286 74.1502 11.5C74.1502 12.7199 73.9845 13.641 73.4095 14.2592C72.8351 14.8767 71.8402 15.2043 70.1484 15.2043H66.9381C65.2463 15.2043 64.2514 14.8767 63.677 14.2592C63.102 13.641 62.9363 12.7199 62.9363 11.5C62.9363 10.2286 63.1117 9.30798 63.691 8.70279C64.2701 8.09789 65.2649 7.79571 66.9381 7.79571H70.1484ZM86.4025 7.84714C87.4695 7.84714 88.195 7.96653 88.6531 8.24642C88.8807 8.38544 89.0424 8.5642 89.1479 8.78927C89.2536 9.01508 89.3039 9.29011 89.3039 9.62286C89.3039 10.4522 89.1146 10.9113 88.6779 11.171C88.4563 11.3027 88.1669 11.3858 87.7963 11.4356C87.4259 11.4853 86.978 11.5014 86.4413 11.5014H79.2939V7.84714H86.4025Z" fill="white" stroke="white" stroke-width="0.1"/>
</svg>
