<svg width="95" height="22" viewBox="0 0 95 22" fill="none" xmlns="http://www.w3.org/2000/svg">
<path d="M18.5 0.5H70H93.5L72.5 21.5H4.5L1 18L18.5 0.5Z" stroke="#D9DADD"/>
<path d="M52.7679 16.05H52.8179V16V11.2814V11.2314H52.7679H46.8004H46.7504V11.2814V12.0786V12.1286H46.8004H51.882V15.1529H45.8615C44.2055 15.1529 43.2172 14.8571 42.6403 14.2616C42.0634 13.6661 41.886 12.7584 41.886 11.5C41.886 10.2092 42.0667 9.30194 42.6449 8.71454C43.2231 8.12706 44.2114 7.84714 45.8615 7.84714H52.5107H52.5607V7.79714V7V6.95H52.5107H45.7329C43.7394 6.95 42.5385 7.4175 41.8383 8.22894C41.1395 9.03883 40.95 10.1797 40.95 11.5C40.95 12.8008 41.1297 13.9416 41.8236 14.7563C42.519 15.5728 43.7199 16.05 45.7329 16.05H52.7679ZM57.8516 16.05H57.9016V16V7V6.95H57.8516H57.0156H56.9656V7V16V16.05H57.0156H57.8516ZM67.534 16.05H67.584V16V7.84714H73H73.05V7.79714V7V6.95H73H61.2578H61.2078V7V7.79714V7.84714H61.2578H66.648V16V16.05H66.698H67.534Z" fill="#5F6368" stroke="#5F6368" stroke-width="0.1"/>
<path d="M35.3334 16.875C35.3334 18.0255 34.4006 18.9583 33.25 18.9583C32.0994 18.9583 31.1667 18.0255 31.1667 16.875C31.1667 15.7244 32.0994 14.7916 33.25 14.7916C34.4006 14.7916 35.3334 15.7244 35.3334 16.875Z" stroke="#5F6368"/>
<path d="M22.6667 6.58333C22.6667 7.73391 21.7339 8.66667 20.5833 8.66667C19.4327 8.66667 18.5 7.73391 18.5 6.58333C18.5 5.43274 19.4327 4.5 20.5833 4.5C21.7339 4.5 22.6667 5.43274 22.6667 6.58333Z" stroke="#5F6368"/>
<path d="M35.3334 6.58333C35.3334 7.73391 34.4006 8.66667 33.25 8.66667C32.0994 8.66667 31.1667 7.73391 31.1667 6.58333C31.1667 5.43274 32.0994 4.5 33.25 4.5C34.4006 4.5 35.3334 5.43274 35.3334 6.58333Z" stroke="#5F6368"/>
<path d="M22.1667 6.58325L31.6667 6.58325L22.1667 6.58325Z" fill="#5F6368"/>
<path d="M22.1667 6.58325L31.6667 6.58325" stroke="#5F6368"/>
<path d="M21.375 11.7291L21.375 15.2916C21.375 16.1661 22.0839 16.875 22.9583 16.875L31.6667 16.875" stroke="#5F6368"/>
<path d="M23.75 13.6041L21.375 11.2291L19 13.6041" stroke="#5F6368"/>
</svg>
