<svg width="96" height="22" viewBox="0 0 96 22" fill="none" xmlns="http://www.w3.org/2000/svg">
<path d="M19 0.5H70.5H94L73 21.5H5L1.5 18L19 0.5Z" stroke="#D9DADD"/>
<path d="M35.3279 16.05H35.3779V16V7V6.95H35.3279H34.5H34.45V7V16V16.05H34.5H35.3279ZM40.6117 16.05H40.6617V16V12.5529H47.6297C48.8471 12.5529 49.75 12.4056 50.3483 11.9679C50.9509 11.5269 51.2333 10.8006 51.2333 9.67429C51.2333 8.81629 50.9946 8.13069 50.4089 7.66169C49.8258 7.19474 48.9077 6.95 47.566 6.95H39.7838H39.7338V7V16V16.05H39.7838H40.6117ZM54.8163 16.05H54.8663V16V12.0257H62.7513H62.8013V11.9757V11.2043V11.1543H62.7513H54.8663V7.84714H63.9486H63.9986V7.79714V7V6.95H63.9486H53.9884H53.9384V7V16V16.05H53.9884H54.8163ZM77.0415 7.84714H77.0915V7.79714V7V6.95H77.0415H69.1319C68.0003 6.95 67.2315 7.15941 66.7454 7.55924C66.257 7.961 66.0633 8.54695 66.0633 9.27571C66.0633 10.1242 66.2525 10.7311 66.7395 11.1227C67.2232 11.5117 67.9898 11.6786 69.1192 11.6786H73.8445C74.3912 11.6786 74.838 11.7019 75.2008 11.7585C75.5639 11.8152 75.8398 11.9049 76.0468 12.0357C76.4548 12.2935 76.6094 12.7212 76.6094 13.4286C76.6094 14.1692 76.4574 14.5892 76.0571 14.8323C75.8536 14.9558 75.5819 15.0364 75.2232 15.0858C74.8649 15.1352 74.4234 15.1529 73.8827 15.1529H66.4189H66.3689V15.2029V16V16.05H66.4189H74.0356C75.2724 16.05 76.1526 15.893 76.7236 15.4829C77.2992 15.0696 77.55 14.4075 77.55 13.4286C77.55 12.5805 77.3705 11.9255 76.8377 11.4855C76.3078 11.0481 75.4393 10.8329 74.0865 10.8329H69.2847C68.2847 10.8329 67.7181 10.713 67.4001 10.4657C67.0872 10.2224 67.0039 9.84577 67.0039 9.28857C67.0039 8.77825 67.0927 8.42711 67.4084 8.19758C67.7301 7.96367 68.2977 7.84714 69.2847 7.84714H77.0415ZM47.4004 7.84714C48.4882 7.84714 49.2009 7.98258 49.6414 8.27744C50.0761 8.56849 50.2544 9.02155 50.2544 9.68714C50.2544 10.5377 50.0831 11.0194 49.6609 11.2958C49.4472 11.4358 49.165 11.5262 48.7979 11.5813C48.4308 11.6364 47.9824 11.6557 47.4386 11.6557H40.6617V7.84714H47.4004Z" fill="#5F6368" stroke="#5F6368" stroke-width="0.1"/>
<path d="M23 3L16 7V15L23 19L30 15V7L23 3ZM22.2772 3.96333H22.2779C22.4864 4.11568 22.7388 4.19788 22.998 4.19788C23.2572 4.19788 23.5095 4.11568 23.7181 3.96333L28.7929 6.86333C28.7827 6.9526 28.7827 7.04273 28.7929 7.132L23.7174 10.032C23.5089 9.87981 23.2567 9.7977 22.9976 9.7977C22.7386 9.7977 22.4864 9.87981 22.2779 10.032L17.2017 7.132C17.2118 7.04295 17.2118 6.95305 17.2017 6.864L22.2772 3.96333ZM29.2806 7.93333C29.354 7.98667 29.4328 8.03133 29.5157 8.06733V13.8673C29.2781 13.9699 29.0799 14.1452 28.9503 14.3674C28.8207 14.5896 28.7665 14.8471 28.7956 15.102L23.7201 18.002C23.647 17.949 23.5681 17.9043 23.485 17.8687L23.4789 12.1C23.7166 11.9976 23.9148 11.8225 24.0445 11.6004C24.1742 11.3783 24.2286 11.1209 24.1997 10.866L29.2806 7.93333ZM16.7194 7.96533L21.7949 10.8653C21.7658 11.1203 21.8201 11.3778 21.9496 11.6C22.0792 11.8222 22.2774 11.9974 22.515 12.1V17.9C22.4315 17.936 22.3533 17.9813 22.2799 18.0347L17.2044 15.1347C17.2335 14.8797 17.1793 14.6222 17.0497 14.4C16.9201 14.1778 16.7219 14.0026 16.4843 13.9V8.1C16.5678 8.064 16.646 8.01867 16.7201 7.96533H16.7194Z" fill="#5F6368" stroke="#5F6368" stroke-width="0.3"/>
</svg>
