<svg width="95" height="22" viewBox="0 0 95 22" fill="none" xmlns="http://www.w3.org/2000/svg">
<path d="M18.5 0.5H70H93.5L72.5 21.5H4.5L1 18L18.5 0.5Z" stroke="#D9DADD"/>
<path d="M34 11.3496V15.8158H34.5347H35.0694V11.3496V6.88346H34.5347H34V11.3496Z" fill="#5F6368"/>
<path d="M38.1517 7.33952V7.79557H40.8094H43.467V11.8057V15.8158H44.0017H44.5364V11.8057V7.79557H47.2098H49.8832V7.33952V6.88346H44.0174H38.1517V7.33952Z" fill="#5F6368"/>
<path d="M51.267 7.33952V7.79557H53.9247H56.5824V11.8057V15.8158H57.1171H57.6518V11.8057V7.79557H60.3252H62.9986V7.33952V6.88346H57.1328H51.267V7.33952Z" fill="#5F6368"/>
<path d="M65.9519 6.98726C65.7852 7.04701 65.5871 7.12879 65.5084 7.17597C64.7882 7.59742 64.4674 8.29251 64.5209 9.32098C64.5492 9.90599 64.6592 10.2897 64.8888 10.6294C65.1845 11.0666 65.6405 11.3087 66.474 11.466C66.6847 11.5069 67.2666 11.5195 69.9966 11.5383C72.7958 11.5572 73.3117 11.5666 73.5696 11.6107C74.6075 11.7868 74.9188 12.1485 74.9188 13.1801C74.9157 14.196 74.6704 14.5137 73.7331 14.7055C73.5161 14.7527 72.9814 14.759 69.1569 14.7684L64.8228 14.781V15.2968V15.8158H68.9052C73.1638 15.8158 73.4123 15.8095 74.0696 15.6774C75.1893 15.451 75.7397 14.9289 75.9599 13.8815C76.0197 13.6047 76.0102 12.6832 75.9473 12.397C75.7334 11.4534 75.2176 10.9659 74.1797 10.7206C73.6356 10.5885 73.5916 10.5885 70.264 10.5633C66.9081 10.5413 66.7948 10.535 66.3608 10.4061C66.0337 10.3086 65.867 10.1796 65.7349 9.92171C65.628 9.71099 65.6248 9.69841 65.6122 9.24864C65.5965 8.64162 65.6468 8.44977 65.8733 8.21702C66.0463 8.04089 66.2287 7.95597 66.6313 7.86476C66.8263 7.82073 67.3578 7.81444 71.2012 7.805L75.5479 7.79242V7.33952V6.88346H70.9024H66.2539L65.9519 6.98726Z" fill="#5F6368"/>
<path d="M25.3027 6.421C21.2392 9.40176 17.5505 12.107 17.1051 12.4324L16.2955 13.028L16.3715 13.0621C16.4868 13.1146 28.3365 17.4519 28.3417 17.4441C28.347 17.4414 26.555 16.2003 24.3647 14.6863C20.6 12.0808 20.3852 11.9312 20.4323 11.8919C20.5266 11.8131 32.5597 1.15218 32.6383 1.07609C32.6802 1.03411 32.709 0.999994 32.7038 0.999994C32.6959 1.00262 29.3661 3.44023 25.3027 6.421Z" fill="#5F6368"/>
<path d="M17.7967 7.58855C17.7967 9.62208 17.8046 11.2856 17.8124 11.2856C17.8203 11.2856 17.9748 11.1781 18.153 11.0469L18.4779 10.8081V7.95065C18.4779 6.32383 18.4883 5.09321 18.5014 5.09321C18.5145 5.09321 19.4944 5.64948 20.6812 6.32908C21.868 7.00867 22.853 7.56756 22.8661 7.56756C22.8976 7.56756 23.4556 7.1661 23.4556 7.14249C23.4556 7.13462 22.1824 6.3973 20.6262 5.50779L17.7967 3.88884V7.58855Z" fill="#5F6368"/>
<path d="M25.0669 8.44139C24.9306 8.56471 24.818 8.67492 24.818 8.68279C24.8206 8.69329 25.8921 9.31253 27.2021 10.063C28.5146 10.8108 29.5862 11.4326 29.5862 11.4431C29.5862 11.4536 28.5539 12.0519 27.2938 12.7708C26.0336 13.4924 25.004 14.088 25.0014 14.0959C25.0014 14.1169 25.5751 14.5131 25.6092 14.5131C25.6433 14.5131 30.9747 11.4641 30.9747 11.4431C30.9747 11.4274 25.3629 8.21573 25.3341 8.21573C25.3236 8.21573 25.2031 8.31807 25.0669 8.44139Z" fill="#5F6368"/>
<path d="M17.7967 16.7146V19L17.9224 18.9292C17.9932 18.8872 19.083 18.2653 20.3458 17.5437C21.6086 16.8222 22.6408 16.2265 22.6408 16.2187C22.6435 16.2108 22.4574 16.1373 22.2295 16.056L21.8182 15.9064L20.1703 16.851C19.2664 17.3679 18.5145 17.793 18.5014 17.793C18.4883 17.793 18.4779 17.116 18.4779 16.237V14.681L18.1582 14.5656C17.9827 14.5 17.8308 14.4423 17.8177 14.4396C17.8072 14.4344 17.7967 15.4577 17.7967 16.7146Z" fill="#5F6368"/>
</svg>
