<svg width="1501" height="69" viewBox="0 0 1501 69" fill="none" xmlns="http://www.w3.org/2000/svg">
    <path d="M0 29H83L111 1" stroke="#D9DADD"/>
    <path d="M83.5 29H546.5M546.5 29L574.5 1M546.5 29L574.5 54.5M574.5 54.5L560.5 68.5M574.5 54.5H652M1500.5 2L1448 54.5H652M560.5 68.5H1.5M560.5 68.5H638L652 54.5" stroke="#D9DADD"/>
    <path d="M576 56.5H586L576 66.5H566L576 56.5Z" fill="#D9DADD"/>
    <path d="M590 56.5H600L590 66.5H580L590 56.5Z" fill="#D9DADD"/>
    <path d="M604 56.5H614L604 66.5H594L604 56.5Z" fill="#D9DADD" fill-opacity="0.31"/>
    <path d="M618 56.5H628L618 66.5H608L618 56.5Z" fill="#D9DADD" fill-opacity="0.31"/>
    <path d="M632 56.5H642L632 66.5H622L632 56.5Z" fill="#D9DADD" fill-opacity="0.31"/>
    <rect x="562.5" y="16.5" width="16.2635" height="16.2635" transform="rotate(45 562.5 16.5)" fill="#D9DADD"/>
    <path d="M565.501 23.4743C565.501 23.4779 565.518 23.4978 565.538 23.5167C565.61 23.5855 565.762 23.7627 565.977 24.0276C566.095 24.174 566.24 24.3467 566.3 24.4118C566.412 24.5329 566.596 24.693 566.705 24.7644C566.791 24.8204 566.795 24.8213 566.795 24.7906C566.795 24.7544 566.736 24.5158 566.708 24.4389C566.575 24.0728 566.321 23.788 565.972 23.6144C565.86 23.5592 565.723 23.5113 565.615 23.4905C565.575 23.4824 565.533 23.4743 565.522 23.4715C565.51 23.4688 565.501 23.4697 565.501 23.4743Z" fill="white"/>
    <path d="M559.314 23.5005C559.076 23.6067 558.855 23.7361 558.699 23.8609C558.617 23.927 558.48 24.0685 558.417 24.1533C558.365 24.224 558.272 24.3963 558.233 24.4978C558.195 24.5956 558.141 24.8544 558.15 24.8972C558.152 24.9103 558.167 24.9038 558.224 24.8637C558.553 24.6356 558.862 24.2957 559.191 23.7976C559.319 23.6048 559.398 23.481 559.398 23.4745C559.398 23.4652 559.385 23.4689 559.314 23.5005Z" fill="white"/>
    <path d="M562.132 23.6599C561.396 23.7205 560.705 23.9841 560.136 24.4193C559.649 24.7921 559.255 25.2807 559.003 25.8252C558.819 26.2237 558.714 26.6122 558.669 27.0649C558.652 27.2274 558.655 27.6149 558.673 27.7839C558.785 28.8105 559.278 29.7059 560.085 30.3468C560.542 30.7096 561.084 30.9621 561.666 31.0824C561.808 31.1118 562.124 31.1531 562.133 31.1439C562.137 31.1411 562.121 31.1072 562.099 31.0695C562.058 31.0006 562.058 31.0006 562.012 30.9951C561.499 30.9318 561.036 30.7793 560.61 30.5351C560.407 30.4194 560.144 30.2265 559.979 30.0732L559.91 30.0098L560.069 29.8491L560.23 29.6893L560.21 29.6214C560.198 29.5837 560.187 29.5498 560.185 29.5452C560.182 29.5415 560.096 29.6214 559.993 29.7233L559.807 29.9079L559.757 29.8546C559.589 29.6737 559.426 29.4561 559.302 29.2476C559.003 28.7426 558.831 28.1769 558.802 27.6039L558.796 27.4827H559.137H559.478L559.484 27.6039C559.504 28.0263 559.649 28.4992 559.876 28.8877C559.938 28.9942 560.075 29.1935 560.079 29.1824C560.08 29.1779 560.055 29.0814 560.021 28.9676C559.976 28.8096 559.949 28.7325 559.907 28.6471C559.829 28.4864 559.82 28.4653 559.772 28.3284C559.698 28.1136 559.659 27.9409 559.629 27.6801C559.613 27.5461 559.602 27.4946 559.551 27.322C559.518 27.2109 559.49 27.1237 559.489 27.1292C559.488 27.1338 559.486 27.1833 559.482 27.2394L559.476 27.3404L559.136 27.3431L558.796 27.345L558.801 27.21C558.827 26.6186 559.021 26.0079 559.346 25.4891C559.452 25.3174 559.607 25.1145 559.734 24.9804L559.802 24.9069L560.043 25.1448L560.282 25.3835L560.244 25.4285C560.065 25.636 559.975 25.7573 559.88 25.9207C559.818 26.0281 559.73 26.2017 559.73 26.2182C559.73 26.2247 559.752 26.2522 559.78 26.2788L559.83 26.3284L559.889 26.2054C559.958 26.0612 560.02 25.9547 560.115 25.816C560.179 25.7224 560.337 25.5277 560.371 25.4992C560.384 25.4882 560.413 25.5139 560.612 25.7113L560.837 25.9354L560.801 25.9721C560.622 26.1585 560.439 26.479 560.352 26.76L560.327 26.8417L560.381 26.8959C560.411 26.9253 560.437 26.9501 560.44 26.9501C560.443 26.9501 560.455 26.9143 560.467 26.8693C560.54 26.6021 560.694 26.311 560.873 26.1016L560.933 26.0318L561.143 26.2403C561.324 26.4212 561.351 26.4515 561.341 26.4643C561.335 26.4726 561.307 26.5102 561.277 26.547C561.129 26.7407 561.027 26.9923 561 27.2348L560.988 27.3404L560.906 27.3431L560.824 27.3459L560.892 27.4138C560.93 27.4515 560.968 27.4827 560.977 27.4827C560.987 27.4827 560.993 27.4891 560.993 27.5002C560.993 27.5167 561.148 27.6902 561.156 27.6829C561.157 27.6811 561.155 27.6636 561.15 27.6434C561.145 27.6232 561.139 27.5791 561.136 27.5442L561.13 27.4827H561.194H561.259L561.274 27.423C561.282 27.3909 561.288 27.3597 561.288 27.3541C561.288 27.3486 561.258 27.345 561.209 27.345H561.129L561.135 27.2798C561.157 27.0373 561.271 26.7655 561.426 26.5828C561.449 26.5552 561.454 26.5534 561.467 26.5635C561.476 26.5709 561.484 26.5745 561.486 26.5727C561.488 26.5709 561.504 26.5066 561.523 26.4313C561.541 26.3551 561.56 26.2853 561.562 26.2761C561.568 26.2559 561.572 26.254 561.488 26.3202L561.453 26.3468L561.246 26.1411C561.133 26.0281 561.039 25.9326 561.039 25.9299C561.039 25.918 561.214 25.7802 561.306 25.7187C561.412 25.648 561.579 25.5617 561.685 25.5213C561.723 25.5075 561.757 25.4919 561.76 25.4882C561.768 25.4763 561.798 25.3422 561.794 25.3376C561.786 25.3312 561.595 25.4046 561.493 25.4533C561.312 25.5396 561.119 25.6673 560.991 25.7839L560.937 25.8326L560.711 25.6085L560.485 25.3844L560.543 25.3303C560.89 25.0079 561.379 24.7618 561.873 24.6608L561.974 24.6406L561.991 24.5727C562.001 24.5359 562.007 24.5029 562.004 24.501C561.997 24.4937 561.874 24.5157 561.734 24.5497C561.254 24.6654 560.832 24.8876 560.447 25.2274L560.384 25.2825L560.145 25.0447L559.905 24.8068L559.936 24.7756C559.983 24.726 560.142 24.591 560.243 24.5157C560.793 24.1007 561.456 23.8527 562.155 23.7986C562.184 23.7958 562.187 23.7921 562.198 23.7591C562.203 23.7389 562.211 23.7067 562.214 23.6874C562.222 23.6498 562.227 23.6516 562.132 23.6599Z" fill="white"/>
    <path d="M562.594 23.6816C562.598 23.6963 562.607 23.7284 562.615 23.7541C562.63 23.8 562.63 23.8 562.671 23.8028C562.694 23.8037 562.769 23.811 562.84 23.8193C563.482 23.8899 564.14 24.1662 564.648 24.5764C564.776 24.6801 564.893 24.7857 564.897 24.7995C564.898 24.805 564.795 24.9142 564.667 25.0427L564.435 25.2758L564.309 25.1675C563.956 24.8683 563.53 24.6517 563.091 24.5489C562.939 24.514 562.808 24.4929 562.808 24.5039C562.808 24.526 562.84 24.6361 562.847 24.6416C562.852 24.6444 562.879 24.6499 562.906 24.6535C562.99 24.6636 563.197 24.7187 563.328 24.7646C563.528 24.8343 563.73 24.9307 563.899 25.0372C564.002 25.1023 564.198 25.251 564.272 25.3208L564.334 25.3786L564.111 25.6025L563.887 25.8255L563.815 25.7631C563.66 25.6282 563.476 25.5126 563.276 25.4245C563.184 25.3841 563.025 25.3263 563.02 25.3318C563.019 25.3336 563.026 25.3694 563.036 25.4116L563.055 25.4887L563.128 25.5144C563.329 25.586 563.57 25.7319 563.757 25.8953L563.789 25.9237L563.58 26.1348L563.371 26.3459L563.329 26.3083C563.279 26.2642 563.255 26.2505 563.255 26.2642C563.255 26.278 563.329 26.5708 563.334 26.5753C563.336 26.5772 563.346 26.5717 563.356 26.5625C563.374 26.546 563.375 26.546 563.401 26.5772C563.49 26.6809 563.588 26.8562 563.634 26.9929C563.661 27.0728 563.689 27.2031 563.698 27.2894L563.704 27.3472H563.616C563.568 27.3472 563.529 27.3499 563.529 27.3536C563.53 27.3582 563.537 27.3876 563.546 27.4206L563.561 27.4803L563.632 27.483C563.671 27.4849 563.703 27.4885 563.703 27.4922C563.703 27.4959 563.696 27.5399 563.689 27.5895C563.682 27.64 563.677 27.6822 563.679 27.684C563.681 27.6858 563.717 27.651 563.761 27.6069C563.811 27.5546 563.84 27.5188 563.84 27.505C563.84 27.4904 563.845 27.4849 563.861 27.4849C563.874 27.4849 563.904 27.4619 563.949 27.416L564.017 27.3472H563.93H563.842L563.832 27.2481C563.802 26.9727 563.69 26.7075 563.513 26.4955L563.472 26.4459L563.682 26.2349L563.892 26.0238L563.96 26.1064C564.14 26.322 564.29 26.6056 564.359 26.8654C564.37 26.9057 564.381 26.9452 564.384 26.9526C564.387 26.9626 564.405 26.9489 564.442 26.9067C564.472 26.8736 564.497 26.8443 564.497 26.8406C564.498 26.8195 564.433 26.6378 564.387 26.534C564.305 26.3432 564.166 26.1238 564.042 25.988C564.016 25.9595 563.995 25.932 563.995 25.9283C563.995 25.9237 564.093 25.8209 564.214 25.6998L564.432 25.4804L564.457 25.5025C564.494 25.5383 564.634 25.7099 564.695 25.7962C564.777 25.9127 564.858 26.0504 564.931 26.2018L564.996 26.3376L565.049 26.2835L565.102 26.2303L565.041 26.1091C564.922 25.8696 564.798 25.6824 564.63 25.4878L564.535 25.3767L564.77 25.1409L565.006 24.9041L565.056 24.9582C565.265 25.1794 565.499 25.519 565.635 25.798C565.649 25.8274 565.668 25.854 565.677 25.8567C565.689 25.8604 565.691 25.8677 565.689 25.8815C565.685 25.8944 565.701 25.9421 565.731 26.0118C565.884 26.3725 565.985 26.8167 566.001 27.2068L566.007 27.3472H565.678H565.348L565.343 27.3261C565.34 27.3151 565.337 27.271 565.337 27.2279C565.337 27.1857 565.334 27.1545 565.33 27.159C565.313 27.1783 565.2 27.6042 565.191 27.6822C565.148 28.0557 565.058 28.3687 564.91 28.666C564.895 28.6954 564.858 28.8083 564.828 28.9166C564.797 29.0249 564.767 29.1277 564.763 29.1442C564.75 29.1882 564.762 29.1754 564.833 29.0708C565.132 28.6266 565.307 28.1154 565.335 27.6088L565.342 27.4894L565.674 27.4867L566.007 27.4849L566.001 27.6152C565.971 28.3008 565.71 29.0157 565.284 29.581C565.181 29.7187 565.016 29.9078 564.999 29.9078C564.996 29.9078 564.916 29.8298 564.821 29.7334L564.649 29.5599L564.625 29.626C564.603 29.6875 564.487 29.8747 564.389 30.0041L564.356 30.0491L564.419 30.0142C564.453 29.995 564.493 29.972 564.507 29.9638C564.528 29.9518 564.536 29.9344 564.561 29.8435C564.577 29.7857 564.594 29.7325 564.597 29.727C564.6 29.7196 564.657 29.7701 564.752 29.8656L564.901 30.0152L564.819 30.0895C564.392 30.4832 563.822 30.7842 563.241 30.9219C563.132 30.9476 562.911 30.9862 562.816 30.9953L562.757 31.0018L562.715 31.0715L562.673 31.1422L562.703 31.1449C562.746 31.1486 563.008 31.1146 563.146 31.0862C564.371 30.8393 565.394 29.9922 565.87 28.8294C566.407 27.5142 566.153 25.9916 565.218 24.9289C564.558 24.179 563.665 23.7348 562.673 23.6614L562.588 23.655L562.594 23.6816Z" fill="white"/>
    <path d="M562.077 24.8916C561.907 25.5739 561.609 26.7673 561.415 27.5444C561.221 28.3206 561.062 28.9624 561.062 28.9698C561.062 28.9781 561.168 29.165 561.298 29.386C561.427 29.607 561.559 29.8307 561.589 29.8841C561.679 30.0379 562.133 30.8132 562.166 30.8694C562.183 30.897 562.239 30.9918 562.29 31.0784C562.341 31.1658 562.386 31.2377 562.389 31.2377C562.393 31.2377 562.411 31.2119 562.429 31.1797C562.448 31.1484 562.752 30.6382 563.105 30.0462C563.458 29.4541 563.746 28.9679 563.744 28.9643C563.74 28.9587 563.701 28.804 563.55 28.2129C563.516 28.0812 563.471 27.9026 563.449 27.817C563.427 27.7304 563.383 27.5527 563.349 27.421C563.316 27.2893 563.268 27.1024 563.243 27.0067C563.219 26.91 563.174 26.7323 563.142 26.6107C563.061 26.2884 562.974 25.9468 562.918 25.7268C562.89 25.62 562.844 25.434 562.813 25.3124C562.781 25.1909 562.735 25.004 562.707 24.8981C562.68 24.7912 562.625 24.5721 562.583 24.41C562.418 23.7618 562.392 23.6578 562.389 23.655C562.387 23.6532 562.247 24.2102 562.077 24.8916Z" fill="white"/>
    <path d="M566.604 23.9795C566.604 23.9823 566.629 24.0237 566.661 24.0725C566.776 24.2558 566.869 24.4814 566.934 24.7374C566.994 24.9685 567.017 25.0762 567.033 25.1886C567.041 25.2466 567.051 25.3037 567.056 25.3147C567.07 25.3479 567.051 25.3396 567.027 25.3009C566.995 25.254 566.863 25.1223 566.78 25.0541C566.742 25.0237 566.638 24.9455 566.549 24.881C566.258 24.6702 566.154 24.5836 566.053 24.4667C566.032 24.4418 566.013 24.4234 566.01 24.4252C566.004 24.4317 566.039 24.5919 566.061 24.6619C566.094 24.7622 566.167 24.9022 566.23 24.986C566.338 25.1287 566.472 25.2521 566.747 25.4602C566.938 25.6048 567.046 25.6941 567.123 25.7724C567.192 25.8414 567.281 25.951 567.305 25.998C567.311 26.0109 567.319 26.0164 567.324 26.0109C567.347 25.9878 567.359 25.3387 567.342 25.1075C567.323 24.8663 567.254 24.6094 567.165 24.4427C567.045 24.2217 566.864 24.0643 566.64 23.9878C566.62 23.9805 566.604 23.9768 566.604 23.9795Z" fill="white"/>
    <path d="M558.204 24.0523C558.069 24.1168 557.923 24.2487 557.837 24.3843C557.728 24.5577 557.651 24.803 557.61 25.1128C557.597 25.217 557.594 25.3037 557.594 25.6449C557.594 25.869 557.597 26.0553 557.601 26.059C557.604 26.0627 557.64 26.0295 557.68 25.9861C557.759 25.8994 557.892 25.7786 558.04 25.6569C558.39 25.3701 558.542 25.2253 558.656 25.0676C558.778 24.9007 558.863 24.6951 558.883 24.518L558.889 24.4627L558.832 24.5272C558.713 24.6628 558.58 24.7827 558.296 25.0095C558.065 25.193 558.018 25.2345 557.917 25.3369C557.875 25.3775 557.842 25.407 557.842 25.4005C557.842 25.3895 557.854 25.3434 557.928 25.0621C558.053 24.5955 558.164 24.2626 558.253 24.0892C558.267 24.0615 558.28 24.0357 558.282 24.0311C558.288 24.0182 558.261 24.0255 558.204 24.0523Z" fill="white"/>
    <path d="M567.43 24.7777C567.428 24.7841 567.438 24.8181 567.454 24.853C567.493 24.9403 567.514 25.0349 567.53 25.1791C567.551 25.3803 567.544 25.6136 567.504 26.1033C567.496 26.1887 567.487 26.3173 567.484 26.3889C567.481 26.4615 567.475 26.5203 567.47 26.5203C567.466 26.5203 567.462 26.5139 567.462 26.5056C567.462 26.4808 567.417 26.3715 567.38 26.309C567.302 26.1767 567.189 26.0555 566.979 25.8773C566.8 25.7257 566.751 25.6752 566.703 25.5897C566.679 25.5484 566.645 25.4997 566.626 25.4804C566.592 25.4464 566.533 25.4207 566.52 25.4345C566.516 25.4391 566.518 25.4602 566.525 25.4832C566.533 25.5052 566.551 25.5649 566.567 25.6155C566.614 25.767 566.71 25.9774 566.795 26.1161C566.856 26.2162 566.985 26.4101 567.1 26.5754C567.246 26.7821 567.333 26.9208 567.409 27.0586C567.466 27.1652 567.541 27.3333 567.549 27.3765C567.558 27.4215 567.574 27.3994 567.581 27.3333C567.592 27.2304 567.628 27.0963 567.7 26.8823C567.879 26.355 567.903 26.2484 567.905 25.9829C567.906 25.7827 567.893 25.6752 567.847 25.5025C567.787 25.2774 567.684 25.0514 567.55 24.8466C567.506 24.7795 567.444 24.7437 567.43 24.7777Z" fill="white"/>
    <path d="M557.376 24.9734C557.201 25.2001 557.114 25.4588 557.09 25.824C557.075 26.036 557.1 26.3535 557.148 26.5627C557.155 26.5957 557.165 26.6407 557.17 26.6636C557.211 26.8535 557.338 27.2031 557.429 27.3747C557.473 27.4573 557.477 27.461 557.484 27.4233C557.505 27.3261 557.571 27.1527 557.635 27.0306C557.71 26.8875 557.773 26.7902 557.949 26.5443C558.198 26.1956 558.314 25.9589 558.353 25.7185C558.382 25.5386 558.384 25.5212 558.377 25.5148C558.373 25.5102 558.357 25.5267 558.34 25.5506C558.324 25.5753 558.203 25.7056 558.071 25.8424C557.796 26.1277 557.721 26.2131 557.647 26.3278C557.592 26.414 557.526 26.5425 557.507 26.6012C557.501 26.6205 557.493 26.6379 557.491 26.6397C557.487 26.6416 557.485 26.5507 557.487 26.4379C557.49 26.2332 557.48 26.0773 557.448 25.8176C557.399 25.4166 557.397 25.0863 557.441 24.922C557.451 24.8862 557.433 24.9009 557.376 24.9734Z" fill="white"/>
    <path d="M565.429 26.1711C565.422 26.1821 565.322 26.2839 565.209 26.3976C564.976 26.6314 564.783 26.8277 564.263 27.3567C563.772 27.8556 563.709 27.9207 563.706 27.9289C563.703 27.9363 563.745 28.0986 563.916 28.7634L563.972 28.9789L563.545 29.6849C563.311 30.0737 563.091 30.4387 563.055 30.4955C562.994 30.5973 562.994 30.5982 563.023 30.5835C563.039 30.5753 563.159 30.5083 563.288 30.435C563.643 30.2351 563.914 30.0829 564.175 29.9371L564.409 29.805L564.463 29.6171C564.776 28.5277 565.428 26.2555 565.451 26.1803C565.461 26.1464 565.45 26.1418 565.429 26.1711Z" fill="white"/>
    <path d="M559.444 26.1521C559.444 26.1557 559.544 26.5169 559.666 26.9537C560.057 28.3524 560.436 29.7097 560.451 29.7669L560.467 29.8221L560.834 30.0341C561.276 30.2884 561.477 30.4045 561.64 30.4994C561.707 30.5381 561.772 30.5759 561.784 30.5823C561.806 30.5943 561.806 30.5943 561.793 30.5722C561.784 30.5602 561.703 30.4192 561.611 30.2598C561.446 29.9733 561.276 29.6784 561.009 29.2177L560.873 28.9818L561.004 28.4575C561.075 28.1691 561.133 27.9258 561.131 27.9175C561.129 27.9028 561.068 27.8374 560.632 27.3849C560.527 27.2762 560.277 27.0145 560.076 26.8044C559.543 26.247 559.444 26.1447 559.444 26.1521Z" fill="white"/>
    <path d="M568.033 26.2554C568.03 26.2619 568.027 26.3159 568.024 26.3755C568.01 26.6642 567.938 26.9315 567.757 27.3617C567.634 27.6522 567.535 27.9344 567.535 27.9884C567.535 27.9977 567.531 28.0033 567.527 28.0005C567.522 27.9977 567.516 27.9624 567.513 27.9232C567.496 27.7249 567.435 27.5144 567.336 27.3133C567.299 27.2406 567.208 27.0777 567.133 26.9519C567.058 26.8262 566.975 26.6791 566.95 26.6241C566.924 26.5692 566.901 26.5245 566.898 26.5245C566.875 26.5217 566.893 26.8849 566.926 27.0805C566.945 27.1913 567.006 27.4464 567.028 27.5079C567.074 27.6327 567.18 28.0061 567.221 28.1812C567.262 28.36 567.271 28.4447 567.271 28.6729C567.271 28.7865 567.273 28.8796 567.275 28.8796C567.283 28.8796 567.526 28.6198 567.575 28.5593C567.889 28.1728 568.089 27.7361 568.157 27.2956C568.202 27.0013 568.186 26.6558 568.113 26.3606C568.09 26.2721 568.075 26.2442 568.048 26.2442C568.041 26.2442 568.035 26.2498 568.033 26.2554Z" fill="white"/>
    <path d="M556.873 26.4859C556.86 26.5429 556.845 26.6046 556.84 26.622C556.823 26.68 556.806 26.909 556.809 27.0314C556.812 27.1712 556.829 27.3432 556.84 27.3763C556.845 27.3891 556.853 27.4241 556.86 27.4545C556.945 27.8987 557.241 28.4175 557.698 28.9261L557.739 28.9721L557.74 28.7973C557.74 28.6125 557.748 28.5251 557.778 28.3467C557.804 28.1894 557.821 28.125 557.949 27.6936C558.064 27.3091 558.094 27.1518 558.101 26.9118C558.107 26.7425 558.099 26.5853 558.086 26.5853C558.082 26.5853 558.069 26.6092 558.058 26.6377C558.028 26.7103 557.953 26.8575 557.86 27.0222C557.692 27.3211 557.61 27.4968 557.561 27.6596C557.526 27.7801 557.496 27.9318 557.489 28.0266C557.486 28.0735 557.479 28.1121 557.475 28.1121C557.471 28.1121 557.468 28.1047 557.468 28.0955C557.468 28.0358 557.367 27.7221 557.269 27.482C557.238 27.4011 557.179 27.2558 557.14 27.1592C557.04 26.9118 556.947 26.6101 556.921 26.4537C556.915 26.4151 556.907 26.3829 556.903 26.3829C556.9 26.3829 556.886 26.4298 556.873 26.4859Z" fill="white"/>
    <path d="M566.89 27.874C566.887 27.8832 566.878 27.9061 566.871 27.9235C566.859 27.9529 566.824 28.0757 566.801 28.1664C566.784 28.2397 566.757 28.3992 566.739 28.5422C566.722 28.6788 566.713 28.7695 566.678 29.1334C566.626 29.6769 566.569 29.9913 566.492 30.1636C566.479 30.1929 566.47 30.2186 566.472 30.2204C566.477 30.2259 567.18 29.7631 567.29 29.6815C567.814 29.2956 568.078 28.9207 568.186 28.4075C568.211 28.2865 568.239 27.9785 568.225 27.9785C568.221 27.9785 568.198 28.0134 568.174 28.0564C568.021 28.3213 567.817 28.5816 567.449 28.9822C567.208 29.2443 567.106 29.357 567.037 29.4404C567.004 29.4808 566.979 29.5073 566.981 29.4991C567.054 29.302 567.068 29.2095 567.067 28.918C567.067 28.6018 567.04 28.4029 566.942 27.9969C566.912 27.8685 566.901 27.8438 566.89 27.874Z" fill="white"/>
    <path d="M558.029 27.9363C558.029 27.9519 558.013 28.0744 557.993 28.208C557.956 28.4567 557.929 28.663 557.911 28.8233C557.906 28.8749 557.903 28.9974 557.906 29.1088C557.91 29.3069 557.922 29.3962 557.962 29.5104C557.969 29.5325 557.974 29.5528 557.972 29.5546C557.97 29.5574 557.953 29.5353 557.935 29.5058C557.86 29.387 557.747 29.2525 557.467 28.9541C557.354 28.8325 557.229 28.6943 557.19 28.6483C557.043 28.4696 556.906 28.2513 556.846 28.0956C556.831 28.0588 556.816 28.0284 556.811 28.0284C556.803 28.0284 556.812 28.3047 556.824 28.3922C556.847 28.57 556.902 28.7588 556.977 28.9191C557.165 29.3235 557.488 29.6449 558.062 29.9995C558.181 30.0742 558.511 30.2667 558.519 30.2667C558.521 30.2667 558.511 30.24 558.497 30.2068C558.464 30.1294 558.404 29.9369 558.381 29.8245C558.346 29.6597 558.325 29.4985 558.281 29.0416C558.24 28.6114 558.219 28.4705 558.163 28.2458C558.123 28.0827 558.059 27.9086 558.038 27.9086C558.034 27.9086 558.029 27.9215 558.029 27.9363Z" fill="white"/>
    <path d="M566.434 29.0147C566.271 29.2118 566.093 29.5705 565.934 30.025C565.746 30.5613 565.594 30.8847 565.417 31.1189L565.362 31.1914L565.405 31.1858C565.573 31.1654 565.898 31.105 566.022 31.0715C566.058 31.0613 566.112 31.0464 566.142 31.0381C566.509 30.9377 566.911 30.7323 567.162 30.5176C567.457 30.2648 567.652 29.9795 567.791 29.5984C567.819 29.5222 567.82 29.498 567.793 29.538C567.759 29.5872 567.631 29.7118 567.527 29.7964C567.321 29.9627 567.037 30.1402 566.585 30.3828C566.41 30.4767 566.115 30.6458 566.047 30.6914C566.009 30.7155 565.977 30.736 565.974 30.736C565.971 30.736 565.994 30.71 566.023 30.6774C566.183 30.5064 566.299 30.2211 566.378 29.8112C566.388 29.7545 566.403 29.682 566.41 29.6486C566.417 29.6151 566.429 29.5482 566.438 29.4999C566.454 29.4032 566.5 29.1644 566.521 29.077C566.531 29.0333 566.532 29.0175 566.523 28.998C566.504 28.959 566.477 28.9636 566.434 29.0147Z" fill="white"/>
    <path d="M558.474 29.1352C558.494 29.2159 558.529 29.3919 558.577 29.6468C558.649 30.0237 558.725 30.2896 558.816 30.4812C558.87 30.5922 558.939 30.7022 558.99 30.76C559.004 30.7765 559.017 30.793 559.017 30.7948C559.017 30.8012 558.981 30.7792 558.976 30.7691C558.969 30.7581 558.823 30.6609 558.718 30.5986C558.619 30.5399 558.538 30.4968 558.26 30.3528C557.773 30.1007 557.588 29.9787 557.394 29.7807C557.336 29.722 557.276 29.6542 557.259 29.6303C557.243 29.6056 557.228 29.5881 557.225 29.5909C557.218 29.5982 557.284 29.7944 557.329 29.899C557.401 30.064 557.488 30.2071 557.596 30.3363C557.926 30.7325 558.438 30.9956 559.209 31.1643C559.326 31.1909 559.588 31.2377 559.614 31.2377C559.635 31.2377 559.635 31.2368 559.604 31.1982C559.511 31.0827 559.411 30.9186 559.335 30.7581C559.31 30.7031 559.289 30.6573 559.289 30.6545C559.289 30.6527 559.281 30.6334 559.271 30.6114C559.247 30.5573 559.196 30.4299 559.144 30.2887C558.929 29.711 558.837 29.5139 558.688 29.3048C558.627 29.2186 558.486 29.0646 558.468 29.0646C558.46 29.0646 558.461 29.082 558.474 29.1352Z" fill="white"/>
    <path d="M565.619 30.2336C565.481 30.3369 565.286 30.5075 565.058 30.7239C564.659 31.1037 564.516 31.2295 564.435 31.2681C564.41 31.2806 564.336 31.3058 564.27 31.3238C564.121 31.3642 564.04 31.3929 563.989 31.4252C563.936 31.4576 563.918 31.4782 563.935 31.4845C564.195 31.577 564.524 31.6488 564.871 31.6883C564.934 31.6955 565.082 31.7 565.259 31.7C565.559 31.6991 565.66 31.691 565.868 31.6488C566.296 31.5626 566.636 31.3669 566.823 31.0984C566.869 31.0337 566.934 30.9134 566.934 30.8954C566.934 30.89 566.912 30.9044 566.886 30.9259C566.789 31.005 566.652 31.0759 566.482 31.1343C566.373 31.1711 566.118 31.234 566.045 31.2429C566.018 31.2456 565.966 31.2537 565.928 31.26C565.793 31.2851 565.463 31.3148 565.05 31.3408C564.93 31.348 564.824 31.3543 564.815 31.3543C564.805 31.3543 564.831 31.3399 564.874 31.3229C565.011 31.2681 565.105 31.2043 565.214 31.0912C565.346 30.952 565.483 30.7194 565.61 30.4159C565.638 30.3467 565.667 30.2776 565.673 30.2632C565.699 30.2048 565.709 30.177 565.705 30.1743C565.704 30.1725 565.665 30.1986 565.619 30.2336Z" fill="white"/>
    <path d="M559.282 30.2691C559.282 30.2825 559.446 30.5959 559.529 30.7415C559.646 30.9451 559.739 31.0665 559.871 31.1906C559.955 31.2674 560.001 31.2996 560.11 31.3549C560.173 31.388 560.18 31.3942 560.153 31.3906C560.112 31.3853 559.825 31.3639 559.551 31.346C559.092 31.3156 558.807 31.2755 558.577 31.2076C558.461 31.1737 558.449 31.1692 558.343 31.121C558.251 31.0781 558.167 31.029 558.13 30.9951C558.041 30.9147 558.189 31.1478 558.311 31.279C558.494 31.4764 558.784 31.6282 559.093 31.6889C559.292 31.7273 559.354 31.7353 559.512 31.7433C559.658 31.7514 560.05 31.7416 560.07 31.73C560.073 31.7282 560.142 31.7183 560.224 31.7085C560.401 31.6871 560.581 31.6558 560.774 31.613C560.983 31.5665 561.155 31.5201 561.155 31.5103C561.155 31.4978 561.078 31.4514 561.016 31.4264C560.983 31.413 560.889 31.3853 560.808 31.3639C560.725 31.3433 560.634 31.3174 560.604 31.3067C560.517 31.2772 560.442 31.2156 560.075 30.8736C559.8 30.6165 559.736 30.5602 559.619 30.47C559.494 30.3745 559.282 30.2477 559.282 30.2691Z" fill="white"/>
    <path d="M562.896 31.4752C562.845 31.4815 562.789 31.4976 562.711 31.528C562.549 31.5916 562.498 31.6032 562.437 31.5898C562.409 31.5835 562.387 31.5746 562.387 31.5701C562.387 31.5656 562.395 31.5477 562.405 31.5316L562.425 31.5021L562.387 31.5173C562.356 31.5298 562.35 31.5361 562.355 31.5522C562.359 31.5719 562.359 31.5719 562.321 31.5593C562.299 31.5531 562.238 31.5316 562.185 31.5137L562.089 31.4788L561.891 31.4797C561.716 31.4797 561.68 31.4824 561.57 31.5038C561.373 31.5414 561.203 31.596 560.906 31.7178C560.809 31.7572 560.666 31.8154 560.588 31.8476C560.245 31.9882 560.003 32.0463 559.766 32.0472C559.65 32.0472 559.547 32.032 559.364 31.9891C559.174 31.9443 559.028 31.9228 559.028 31.9398C559.028 31.9622 559.337 32.1627 559.498 32.2442C559.648 32.3194 559.771 32.3642 559.909 32.3946C560.055 32.4259 560.293 32.4277 560.447 32.3982C560.689 32.3507 560.849 32.2755 561.203 32.0428C561.533 31.8243 561.683 31.7491 561.864 31.7071C561.953 31.6874 562.134 31.673 562.163 31.6838C562.178 31.6892 562.177 31.6909 562.157 31.7017C562.09 31.7366 561.699 31.9694 561.599 32.0329C561.387 32.1681 561.229 32.2997 561.118 32.4304C561.012 32.5548 560.985 32.6023 561.022 32.6023C561.044 32.6023 561.102 32.6578 561.135 32.7097C561.153 32.7393 561.171 32.7634 561.174 32.7634C561.176 32.7634 561.272 32.6721 561.386 32.5602C561.824 32.1287 562.028 31.972 562.357 31.8127L562.506 31.7402L562.545 31.7572C562.611 31.7858 562.789 31.8933 562.896 31.9694C563.07 32.092 563.189 32.1932 563.552 32.5217C563.679 32.6372 563.788 32.7339 563.792 32.7357C563.798 32.7375 563.838 32.7043 563.881 32.6632C563.925 32.6211 563.969 32.5826 563.98 32.5781C564.004 32.5647 563.992 32.5432 563.909 32.4501C563.783 32.3104 563.626 32.1896 563.314 31.9935C563.019 31.8082 562.838 31.6856 562.822 31.6614C562.815 31.6489 563.003 31.6524 563.112 31.6668C563.292 31.69 563.352 31.7223 563.658 31.9622C563.911 32.16 563.982 32.2012 564.18 32.2675C564.378 32.3337 564.547 32.3552 564.824 32.3489C565.001 32.3445 565.053 32.34 565.149 32.3212C565.422 32.2666 565.635 32.1699 565.782 32.0338C565.839 31.9819 565.924 31.8709 565.916 31.8592C565.914 31.8557 565.88 31.8691 565.841 31.8879C565.757 31.9273 565.597 31.981 565.504 31.9989C565.468 32.0061 565.379 32.0141 565.306 32.0168C565.026 32.0284 564.783 31.972 564.301 31.7849C563.743 31.5683 563.644 31.537 563.388 31.4913C563.273 31.4707 563.006 31.4618 562.896 31.4752Z" fill="white"/>
    <path d="M792 28L812.5 7.5H843.5L823 28H792Z" stroke="#D9DADD"/>
    <path d="M854 28L874.5 7.5H905.5L885 28H854Z" stroke="#D9DADD"/>
    <path d="M823 28L843.5 7.5H874.5L854 28H823Z" stroke="#D9DADD"/>
    <path d="M812 17.9485H822" stroke="#5F6368"/>
    <path d="M817 13.5L817 22.5" stroke="#5F6368"/>
    <path d="M874 17.9485H884" stroke="#5F6368"/>
    <path d="M562 18.5L571.987 8.5H734L724.013 18.5L714.025 28.5H571.987L562 18.5Z" stroke="#D9DADD"/>
    <path d="M712 24.5L712 20L717.196 20L712 24.5Z" fill="#D9DADD"/>
    <path d="M724 18.5L733.987 8.5H798L788.013 18.5L778.025 28.5H714L724 18.5Z" stroke="#D9DADD"/>
    <path d="M777 24.5L777 20L782.196 20L777 24.5Z" fill="#D9DADD"/>
    <path d="M563 38.5L572.987 28.5H675L665.013 38.5L655.025 48.5H572.987L563 38.5Z" stroke="#D9DADD"/>
    <path d="M655 48.5L675.5 28.5H761.5L741 48.5H655Z" stroke="#D9DADD"/>
    <path d="M741 48.5L761.5 28.5H937.5L917 48.5H741Z" stroke="#D9DADD"/>
    <path d="M917 48.5L938.491 27.5H1106L1084.51 48.5H917Z" stroke="#D9DADD"/>
</svg>
